<?xml version="1.0" standalone="no"?>
<!DOCTYPE svg PUBLIC "-//W3C//DTD SVG 20010904//EN"
 "http://www.w3.org/TR/2001/REC-SVG-20010904/DTD/svg10.dtd">
<svg version="1.0" xmlns="http://www.w3.org/2000/svg"
 width="100.000000pt" height="100.000000pt" viewBox="0 0 100.000000 100.000000"
 preserveAspectRatio="xMidYMid meet">

<g transform="translate(0.000000,100.000000) scale(0.100000,-0.100000)"
fill="#000000" stroke="none">
<path d="M503 730 c-31 -19 -45 -50 -23 -50 6 0 17 -15 26 -33 14 -29 20 -32
49 -29 25 3 36 -1 49 -19 9 -13 16 -31 16 -41 0 -11 7 -18 18 -18 11 0 27 -9
37 -20 10 -11 29 -20 42 -20 28 0 63 33 63 58 0 23 -30 52 -53 52 -11 0 -17 8
-17 25 0 27 -32 50 -61 42 -12 -3 -20 2 -24 14 -8 23 -52 59 -74 59 -9 0 -31
-9 -48 -20z"/>
<path d="M376 423 c-9 -9 -7 -33 3 -33 12 0 22 28 12 34 -5 3 -11 3 -15 -1z"/>
<path d="M517 373 c-12 -11 -8 -23 8 -23 8 0 15 7 15 15 0 16 -12 20 -23 8z"/>
<path d="M427 353 c-4 -3 -7 -15 -7 -25 0 -26 24 -17 28 10 3 21 -8 29 -21 15z"/>
<path d="M337 330 c-3 -11 -1 -23 5 -26 11 -7 14 -5 22 24 5 16 3 22 -7 22 -8
0 -17 -9 -20 -20z"/>
<path d="M487 294 c-11 -11 -8 -44 3 -44 15 0 24 30 13 41 -5 5 -12 6 -16 3z"/>
<path d="M400 275 c0 -9 5 -15 11 -13 6 2 11 8 11 13 0 5 -5 11 -11 13 -6 2
-11 -4 -11 -13z"/>
</g>
</svg>
