<?xml version="1.0" standalone="no"?>
<!DOCTYPE svg PUBLIC "-//W3C//DTD SVG 20010904//EN"
 "http://www.w3.org/TR/2001/REC-SVG-20010904/DTD/svg10.dtd">
<svg version="1.0" xmlns="http://www.w3.org/2000/svg"
 width="100.000000pt" height="100.000000pt" viewBox="0 0 100.000000 100.000000"
 preserveAspectRatio="xMidYMid meet">

<g transform="translate(0.000000,100.000000) scale(0.100000,-0.100000)"
fill="#000000" stroke="none">
<path d="M520 759 c-14 -5 -32 -20 -42 -32 -16 -20 -15 -23 13 -54 16 -19 29
-40 29 -48 0 -10 9 -12 34 -8 28 4 39 1 60 -20 14 -15 26 -37 26 -51 0 -17 4
-24 14 -20 7 3 28 -7 46 -23 55 -46 130 -21 130 42 0 24 -42 65 -66 65 -8 0
-14 9 -14 20 0 32 -38 63 -69 57 -22 -5 -29 -1 -40 25 -8 18 -27 36 -47 44
-38 16 -40 16 -74 3z"/>
<path d="M366 434 c-9 -24 -7 -31 5 -11 10 17 39 24 39 9 0 -4 -7 -19 -16 -32
-11 -18 -8 -16 10 5 14 17 26 33 26 38 0 14 -58 7 -64 -9z"/>
<path d="M335 370 c-9 -16 -13 -30 -11 -30 3 0 12 14 21 30 9 17 13 30 11 30
-3 0 -12 -13 -21 -30z"/>
<path d="M415 370 c-16 -7 -17 -9 -3 -9 9 -1 20 4 23 9 7 11 7 11 -20 0z"/>
</g>
</svg>
