<?xml version="1.0" standalone="no"?>
<!DOCTYPE svg PUBLIC "-//W3C//DTD SVG 20010904//EN"
 "http://www.w3.org/TR/2001/REC-SVG-20010904/DTD/svg10.dtd">
<svg version="1.0" xmlns="http://www.w3.org/2000/svg"
 width="100.000000pt" height="100.000000pt" viewBox="0 0 100.000000 100.000000"
 preserveAspectRatio="xMidYMid meet">

<g transform="translate(0.000000,100.000000) scale(0.100000,-0.100000)"
fill="#000000" stroke="none">
<path d="M393 648 c2 -9 28 -13 82 -13 54 0 80 4 83 13 3 9 -18 12 -83 12 -65
0 -86 -3 -82 -12z"/>
<path d="M270 583 c0 -10 39 -13 161 -13 106 0 159 4 157 10 -5 16 -318 19
-318 3z"/>
<path d="M380 520 c0 -6 72 -10 195 -10 123 0 195 4 195 10 0 6 -72 10 -195
10 -123 0 -195 -4 -195 -10z"/>
<path d="M230 460 c0 -6 71 -10 194 -10 119 0 197 4 201 10 4 7 -63 10 -194
10 -127 0 -201 -4 -201 -10z"/>
<path d="M320 400 c0 -6 72 -10 195 -10 123 0 195 4 195 10 0 6 -72 10 -195
10 -123 0 -195 -4 -195 -10z"/>
<path d="M380 340 c0 -6 46 -10 119 -10 69 0 122 4 126 10 4 6 -38 10 -119 10
-77 0 -126 -4 -126 -10z"/>
</g>
</svg>
